<?xml version="1.0" encoding="UTF-8" standalone="no"?>
<svg
   xmlns:dc="http://purl.org/dc/elements/1.1/"
   xmlns:cc="http://creativecommons.org/ns#"
   xmlns:rdf="http://www.w3.org/1999/02/22-rdf-syntax-ns#"
   xmlns:svg="http://www.w3.org/2000/svg"
   xmlns="http://www.w3.org/2000/svg"
   xmlns:sodipodi="http://sodipodi.sourceforge.net/DTD/sodipodi-0.dtd"
   xmlns:inkscape="http://www.inkscape.org/namespaces/inkscape"
   version="1.1"
   id="svg2"
   viewBox="0 0 200 100"
   height="100"
   width="200"
   inkscape:version="0.91pre4 r13712"
   sodipodi:docname="features2.svg">
  <sodipodi:namedview
     pagecolor="#ffffff"
     bordercolor="#666666"
     borderopacity="1"
     objecttolerance="10"
     gridtolerance="10"
     guidetolerance="10"
     inkscape:pageopacity="0"
     inkscape:pageshadow="2"
     inkscape:window-width="1366"
     inkscape:window-height="748"
     id="namedview30"
     showgrid="false"
     inkscape:zoom="256"
     inkscape:cx="36.080946"
     inkscape:cy="24.537115"
     inkscape:window-x="-8"
     inkscape:window-y="-8"
     inkscape:window-maximized="1"
     inkscape:current-layer="svg2" />
  <defs
     id="defs4" />
  <metadata
     id="metadata7">
    <rdf:RDF>
      <cc:Work
         rdf:about="">
        <dc:format>image/svg+xml</dc:format>
        <dc:type
           rdf:resource="http://purl.org/dc/dcmitype/StillImage" />
        <dc:title />
      </cc:Work>
    </rdf:RDF>
  </metadata>
  <polygon
     points="107.644,470.877 74.633,100.62 437.367,100.62 404.321,470.819 255.778,512 "
     id="polygon6"
     style="fill:#e44d26"
     transform="matrix(0.1953125,0,0,0.1953125,-14.576758,0)" />
  <polygon
     points="404.27,130.894 256,130.894 256,480.523 376.03,447.246 "
     id="polygon8"
     style="fill:#f16529"
     transform="matrix(0.1953125,0,0,0.1953125,-14.576758,0)" />
  <polygon
     points="256,268.217 195.91,268.217 191.76,221.716 256,221.716 256,176.305 255.843,176.305 142.132,176.305 143.219,188.488 154.38,313.627 256,313.627 "
     id="polygon10"
     style="fill:#ebebeb"
     transform="matrix(0.1953125,0,0,0.1953125,-14.576758,0)" />
  <polygon
     points="201.994,336.333 177.419,336.333 156.409,336.333 162.771,407.634 255.791,433.457 256,433.399 256,386.153 255.801,386.206 205.227,372.55 "
     id="polygon12"
     style="fill:#ebebeb"
     transform="matrix(0.1953125,0,0,0.1953125,-14.576758,0)" />
  <path
     d="m 6.5916014,0 4.5072266,0 0,4.453125 4.123047,0 0,-4.453125 4.507422,0 0,13.485156 -4.507227,0 0,-4.5156248 -4.123047,0 0,4.5156248 -4.5072263,0 0,-13.485156 z"
     id="path14"
     inkscape:connector-curvature="0" />
  <path
     d="m 25.656445,4.471875 -3.967969,0 0,-4.471875 12.445313,0 0,4.471875 -3.969727,0 0,9.013281 -4.507422,0 0,-9.013281 z"
     id="path16"
     inkscape:connector-curvature="0" />
  <path
     d="M 36.108984,0 40.808789,0 43.699805,4.7382812 46.58789,0 l 4.701563,0 0,13.485156 -4.488672,0 0,-6.6839841 -3.100976,4.7947261 -0.07754,0 -3.103125,-4.7947261 0,6.6839841 -4.410156,0 0,-13.485156 z"
     id="path18"
     inkscape:connector-curvature="0" />
  <path
     d="m 53.532617,0 4.508594,0 0,9.0277344 6.338476,0 0,4.4574216 -10.84707,0 0,-13.485156 z"
     id="path20"
     inkscape:connector-curvature="0" />
  <polygon
     points="306.49,372.521 255.843,386.191 255.843,433.435 348.937,407.634 349.62,399.962 360.291,280.411 361.399,268.217 349.162,268.217 255.843,268.217 255.843,313.627 311.761,313.627 "
     id="polygon22"
     style="fill:#ffffff"
     transform="matrix(0.1953125,0,0,0.1953125,-14.576758,0)" />
  <polygon
     points="255.843,176.305 255.843,204.509 255.843,221.605 255.843,221.716 365.385,221.716 365.385,221.716 365.531,221.716 366.442,211.509 368.511,188.488 369.597,176.305 "
     id="polygon24"
     style="fill:#ffffff"
     transform="matrix(0.1953125,0,0,0.1953125,-14.576758,0)" />
  <g
     id="g3013"
     transform="matrix(0.1953125,0,0,0.1953125,114.57676,0)">
    <polygon
       id="polygon2989"
       points="107.644,470.877 74.633,100.62 437.367,100.62 404.321,470.819 255.778,512 "
       style="fill:#264de4" />
    <polygon
       id="polygon2991"
       points="376.03,447.246 404.27,130.894 256,130.894 256,480.523 "
       style="fill:#2965f1" />
    <polygon
       id="polygon2993"
       points="150.31,268.217 154.38,313.627 256,313.627 256,268.217 "
       style="fill:#ebebeb" />
    <polygon
       id="polygon2995"
       points="146.26,221.716 256,221.716 256,176.305 255.843,176.305 142.132,176.305 "
       style="fill:#ebebeb" />
    <polygon
       id="polygon2997"
       points="255.791,433.457 256,433.399 256,386.153 255.801,386.206 205.227,372.55 201.994,336.333 177.419,336.333 156.409,336.333 162.771,407.634 "
       style="fill:#ebebeb" />
    <path
       inkscape:connector-curvature="0"
       id="path2999"
       d="m 160,0 55,0 0,23 -32,0 0,23 32,0 0,23 -55,0 z" />
    <path
       inkscape:connector-curvature="0"
       id="path3001"
       d="m 226,0 55,0 0,20 -32,0 0,4 32,0 0,46 -55,0 0,-21 32,0 0,-4 -32,0 z" />
    <path
       inkscape:connector-curvature="0"
       id="path3003"
       d="m 292,0 55,0 0,20 -32,0 0,4 32,0 0,46 -55,0 0,-21 32,0 0,-4 -32,0 z" />
    <polygon
       id="polygon3005"
       points="369.597,176.305 255.843,176.305 255.843,221.716 319.831,221.716 315.699,268.217 255.843,268.217 255.843,313.627 311.761,313.627 306.49,372.521 255.843,386.191 255.843,433.435 348.937,407.634 349.62,399.962 360.291,280.411 361.399,268.217 "
       style="fill:#ffffff" />
  </g>
  <g
     id="g4214"
     transform="translate(0,-952.36218)">
    <rect
       y="987.36218"
       x="97.5"
       height="30"
       width="5"
       id="rect4197"
       style="opacity:1;fill:#b3b3b3;fill-opacity:1;fill-rule:nonzero;stroke:none;stroke-width:100;stroke-linecap:round;stroke-linejoin:round;stroke-miterlimit:4;stroke-dasharray:none;stroke-dashoffset:0;stroke-opacity:1" />
    <rect
       transform="matrix(0,1,-1,0,0,0)"
       y="-115"
       x="999.86218"
       height="30"
       width="5"
       id="rect4197-3"
       style="opacity:1;fill:#b3b3b3;fill-opacity:1;fill-rule:nonzero;stroke:none;stroke-width:100;stroke-linecap:round;stroke-linejoin:round;stroke-miterlimit:4;stroke-dasharray:none;stroke-dashoffset:0;stroke-opacity:1" />
  </g>
</svg>
