<?xml version="1.0" encoding="UTF-8" standalone="no"?>
<svg
   xmlns:dc="http://purl.org/dc/elements/1.1/"
   xmlns:cc="http://creativecommons.org/ns#"
   xmlns:rdf="http://www.w3.org/1999/02/22-rdf-syntax-ns#"
   xmlns:svg="http://www.w3.org/2000/svg"
   xmlns="http://www.w3.org/2000/svg"
   xmlns:sodipodi="http://sodipodi.sourceforge.net/DTD/sodipodi-0.dtd"
   xmlns:inkscape="http://www.inkscape.org/namespaces/inkscape"
   id="svg2"
   height="100"
   width="100"
   version="1.1"
   viewBox="0 0 100 100"
   inkscape:version="0.91pre4 r13712"
   sodipodi:docname="features3.svg">
  <defs
     id="defs13" />
  <sodipodi:namedview
     pagecolor="#ffffff"
     bordercolor="#666666"
     borderopacity="1"
     objecttolerance="10"
     gridtolerance="10"
     guidetolerance="10"
     inkscape:pageopacity="0"
     inkscape:pageshadow="2"
     inkscape:window-width="1366"
     inkscape:window-height="748"
     id="namedview11"
     showgrid="false"
     inkscape:zoom="2.36"
     inkscape:cx="50"
     inkscape:cy="50"
     inkscape:window-x="-8"
     inkscape:window-y="-8"
     inkscape:window-maximized="1"
     inkscape:current-layer="svg2" />
  <metadata
     id="metadata7">
    <rdf:RDF>
      <cc:Work
         rdf:about="">
        <dc:format>image/svg+xml</dc:format>
        <dc:type
           rdf:resource="http://purl.org/dc/dcmitype/StillImage" />
        <dc:title />
      </cc:Work>
    </rdf:RDF>
  </metadata>
  <g
     id="g3437"
     transform="matrix(.2 0 0 .19999 -9.1121 9.5992)">
    <path
       id="path3447"
       fill="#eaeaea"
       d="m74.391 450.44c-7.7452-2.3914-16.736-9.1653-21.526-16.219-7.9727-11.739-7.3529 8.8173-7.0635-234.27l0.25896-217.48 3.3104-6.7241c4.3503-8.8365 11.003-15.532 19.677-19.802l6.971-3.4318h219.54 219.54l6.9462 3.4196c8.888 4.3756 15.745 11.24 19.819 19.84l3.1931 6.7408v219.52 219.52l-3.4196 6.9462c-4.3432 8.8222-10.77 15.249-19.592 19.592l-6.946 3.4196-218.02 0.18496c-187.42 0.15901-218.68-0.0174-222.69-1.2568zm355.92-242.68 64.253-64.247v-16.992-16.992l-17.239-17.26-17.239-17.26h-18.014-18.014l-63.993 63.999-63.993 63.999 34.49 34.501c18.97 18.976 34.717 34.501 34.993 34.501 0.2764 0 29.416-28.911 64.755-64.247z" />
    <path
       id="path3445"
       fill="#d9d9d9"
       d="m72.792 449.58c-11.718-4.35-21.181-14.04-25.126-25.72l-2.1052-6.2337v-215.61-215.61l2.1052-6.2337c4.0436-11.974 14.196-22.095 26.156-26.075l6.2899-2.0931 216.97 0.25676 216.97 0.25676 6 2.4051c8.3631 3.3524 19.243 14.232 22.595 22.595l2.4051 6v218.5 218.5l-2.2358 5.5c-4.3522 10.706-13.68 19.584-24.828 23.631l-6.5274 2.3693-216.2-0.0521-216.2-0.0521-6.2689-2.3288zm316.52-200.81 105.25-105.25v-16.992-16.992l-17.74-17.76-17.74-17.76-17.01 0.05464-17.01 0.05464-113.98 113.46-113.98 113.46 26.473 26.488 26.473 26.488h17.005 17.005l105.25-105.25z" />
    <path
       id="path3443"
       fill="#00fd00"
       d="m76.811 450.48c-15.491-4.1884-27.017-16.368-30.246-31.961-0.69986-3.38-0.94941-74.499-0.77022-219.5l0.26508-214.5 2.2854-5.6525c4.433-10.964 13.098-19.629 24.062-24.062l5.6525-2.2854h217.5 217.5l5.6525 2.2854c10.964 4.433 19.629 13.098 24.062 24.062l2.2854 5.6525v217.5 217.5l-2.2854 5.6525c-4.433 10.964-13.098 19.629-24.062 24.062l-5.6525 2.2854-215.5 0.18995c-183.4 0.16-216.28-0.03-220.75-1.23zm313-201.21 104.75-104.75v-17.492-17.492l-17.74-17.76-17.74-17.76h-17.008-17.008l-78.743 78.738-78.743 78.738-8.7593-8.5555c-4.8176-4.7055-16.859-16.504-26.759-26.218l-18-17.662-17.49-0.0205-17.49-0.0206-17.26 17.239-17.26 17.239v17.343 17.343l52.25 52.918 52.25 52.918 17.998 0.00013 17.998 0.00012 104.75-104.75z" />
    <path
       id="path3441"
       fill="#00ea00"
       d="m95.561 451.09c-21.296-0.63-22.549-0.92-32.604-7.6-5.945-3.94-12.23-12.59-15.062-20.71-1.757-5.04-1.834-14.33-1.834-221.26v-216l2.1658-5.2812c3.9258-9.5731 8.1611-15.036 15.238-19.656 13.444-8.776-7.8985-7.9264 208.6-8.3036 105.6-0.18397 203.27 0.01992 217.05 0.45308l25.052 0.78757 7.5066 3.7102c4.1286 2.0406 8.3389 4.6299 9.3562 5.754 1.8322 2.0246 0.60476 3.2918-130.56 134.79-72.84 73.009-132.64 132.85-132.92 132.98-0.275 0.13001-12.425-11.435-27-25.699l-26.5-25.935-17.511-0.051-17.511-0.051-17.239 17.26-17.239 17.26v17.321 17.321l52.25 52.918 52.25 52.918 17.995 0.00013 17.995 0.00012 40.508-40.499 40.508-40.499 83.454 83.458c45.9 45.902 83.248 83.629 82.997 83.837-3.4363 2.8446-11.312 7.3624-15.789 9.057l-5.6678 2.1453-198 0.0775c-108.9 0.0427-206.78-0.18352-217.5-0.50265z" />
    <path
       id="path3439"
       fill="#00d900"
       d="m53.652 432.92c-7.8505-11.756-7.2221 3.0804-7.7471-182.9-0.25852-91.575-0.09-189 0.37448-216.5l0.84452-50 3.2199-6.5c1.771-3.575 4.2414-7.7285 5.4899-9.23l2.271-2.733 118.74 118.74 118.73 118.73-14.256 14.218-14.256 14.218-26.5-25.924-26.5-25.924-17.511-0.051-17.511-0.051-17.239 17.26-17.239 17.26v17.483 17.483l26.245 26.259 26.245 26.259-68.992 68.998c-37.946 37.949-69.294 68.998-69.662 68.998-0.36849 0-2.5032-2.7453-4.7439-6.1007z" />
  </g>
</svg>
