<?xml version="1.0" encoding="UTF-8" standalone="no"?>
<svg
   xmlns:dc="http://purl.org/dc/elements/1.1/"
   xmlns:cc="http://creativecommons.org/ns#"
   xmlns:rdf="http://www.w3.org/1999/02/22-rdf-syntax-ns#"
   xmlns:svg="http://www.w3.org/2000/svg"
   xmlns="http://www.w3.org/2000/svg"
   version="1.1"
   id="svg2"
   viewBox="0 0 140 100"
   height="100"
   width="140">
  <defs
     id="defs4" />
  <metadata
     id="metadata7">
    <rdf:RDF>
      <cc:Work
         rdf:about="">
        <dc:format>image/svg+xml</dc:format>
        <dc:type
           rdf:resource="http://purl.org/dc/dcmitype/StillImage" />
        <dc:title></dc:title>
      </cc:Work>
    </rdf:RDF>
  </metadata>
  <g
     transform="translate(0,-952.36216)"
     id="layer1">
    <path
       id="path4216"
       d="m 42.652137,1052.3458 c -16.99361,-0.037 -26.59013,-0.096 -26.69809,-0.1667 -0.0541,-0.036 -0.0213,-0.082 0.36191,-0.5173 3.78736,-4.3027 34.32307,-36.363 36.55968,-38.385 0.16784,-0.1518 0.22615,-0.1872 0.26838,-0.1634 0.2935,0.1658 3.0306,2.9506 8.30962,8.4546 3.63104,3.7857 4.65039,4.83 5.54313,5.6786 1.54166,1.4655 2.30511,1.9332 3.04038,1.8624 0.38772,-0.038 0.68662,-0.1275 0.87671,-0.2647 0.89239,-0.6438 3.07823,-2.8179 8.86209,-8.8144 3.93996,-4.0848 6.26179,-6.4168 6.38879,-6.4168 0.1365,0 2.61388,2.5406 11.02953,11.3109 9.004913,9.3844 21.699623,22.7938 24.707673,26.0987 0.64231,0.7056 0.88026,0.995 0.84703,1.0297 -0.13356,0.14 -3.46675,0.2091 -12.54343,0.2604 -7.89098,0.045 -52.233513,0.066 -67.553403,0.034 z m -39.03052,-0.8081 c -0.58167,-0.1907 -1.67897,-0.9765 -2.04947,-1.4677 -0.31143,-0.4129 -0.68295001,-1.1292 -1.21893001,-2.3499 l -0.28277,-0.6441 -0.0321,-18.344 c -0.0497,-28.3701 -0.0515,-62.33505 -0.003,-65.59395 0.0581,-3.9429 0.10799,-5.2131 0.20885,-5.3188 0.0357,-0.038 0.10285,0.013 0.41656,0.3133 3.93240001,3.7615 40.67565001,42.29645 45.58764001,47.81055 0.49398,0.5545 0.56289,0.649 0.52597,0.7213 -0.24092,0.4716 -8.99504,9.7915 -21.5966,22.9922 -11.25949,11.795 -19.30027,20.1007 -20.96208,21.6528 -0.3176,0.2966 -0.34862,0.3085 -0.59359,0.2283 z m 131.115983,-0.1165 c -0.78204,-0.6576 -4.32011,-4.2466 -10.87491,-11.0316 -4.49088,-4.6487 -31.749273,-33.2011 -31.749273,-33.2566 0,-0.057 28.920483,-30.35515 34.543983,-36.19035 8.5039,-8.824 13.0158,-13.4242 13.16879,-13.4267 0.0448,-8e-4 0.0539,0.081 0.0727,0.6524 0.0991,3.016 0.12975,29.6948 0.072,62.63885 l -0.0438,25.0059 -0.32089,0.8269 c -0.17649,0.4548 -0.42655,1.0502 -0.55568,1.3231 -0.67773,1.4322 -1.72072,2.6408 -2.74545,3.1815 -0.33735,0.178 -0.94682,0.3966 -1.18871,0.4264 -0.17475,0.021 -0.17529,0.021 -0.37879,-0.1498 z m -65.488903,-34.8326 c -0.51876,-0.1551 -0.53617,-0.17 -2.32933,-1.9833 -4.49224,-4.5427 -14.33424,-14.77885 -31.5153,-32.77725 -18.3535,-19.2266 -27.62585,-29.0417 -27.62585,-29.2431 0,-0.014 0.0225,-0.034 0.05,-0.044 0.0873,-0.036 5.02468,-0.086 11.94832,-0.1229 10.07378,-0.053 77.55091,-0.077 92.197223,-0.032 12.00161,0.037 18.74829,0.078 19.50508,0.1214 0.28443,0.016 0.38679,0.034 0.38679,0.064 0,0.2156 -14.04856,14.9964 -36.184253,38.0702 -9.60976,10.01705 -20.03291,20.79775 -23.36505,24.16655 -1.6654,1.6838 -1.61202,1.6392 -2.12933,1.7799 -0.31224,0.085 -0.65558,0.085 -0.93825,6e-4 z"
       style="fill:#4dccc3" />
  </g>
</svg>
