<?xml version="1.0" encoding="UTF-8" standalone="no"?>
<svg
   xmlns:dc="http://purl.org/dc/elements/1.1/"
   xmlns:cc="http://creativecommons.org/ns#"
   xmlns:rdf="http://www.w3.org/1999/02/22-rdf-syntax-ns#"
   xmlns:svg="http://www.w3.org/2000/svg"
   xmlns="http://www.w3.org/2000/svg"
   version="1.1"
   id="svg2"
   viewBox="0 0 60 100"
   height="100"
   width="60">
  <defs
     id="defs4" />
  <metadata
     id="metadata7">
    <rdf:RDF>
      <cc:Work
         rdf:about="">
        <dc:format>image/svg+xml</dc:format>
        <dc:type
           rdf:resource="http://purl.org/dc/dcmitype/StillImage" />
        <dc:title></dc:title>
      </cc:Work>
    </rdf:RDF>
  </metadata>
  <g
     transform="translate(0,-952.36213)"
     id="layer1">
    <g
       transform="translate(657.14286,271.42857)"
       id="g3381">
      <g
         transform="matrix(0.19539189,0,0,0.20308818,-588.51932,683.60021)"
         id="g4187">
        <path
           style="fill:#ff4848;fill-opacity:1"
           d="m -201.31941,465.83604 c -7.74841,-31.98212 -21.01209,-67.40576 -37.54021,-100.25955 -14.69365,-29.20733 -22.32065,-41.94277 -59.58856,-99.5 -20.45722,-31.5945 -38.73718,-64.68562 -44.33222,-80.25197 -15.58268,-43.35369 -9.30219,-92.77555 16.69869,-131.40382 18.95855,-28.165816 46.93457,-49.479062 78.47641,-59.7864557 32.13059,-10.4997863 68.54242,-10.3444323 100.76604,0.4299251 34.37063,11.4922356 64.03975,35.6670846 82.85922,67.5149486 13.89897,23.520988 19.89938,46.348572 19.84509,75.497372 -0.0493,26.4801 -3.675,40.16595 -18.76684,70.83929 -10.95557,22.26659 -18.27184,34.6163 -43.63837,73.66071 -33.59893,51.71578 -48.64896,78.70424 -64.22525,115.17191 -8.49438,19.88731 -20.26629,56.68849 -23.94079,74.84334 -0.70556,3.48603 -1.73212,6.488 -2.28124,6.67104 -0.54913,0.18305 -2.49851,-5.85899 -4.33197,-13.42674 z"
           id="path3385" />
        <path
           style="fill:#ffffff;fill-opacity:1"
           d="m -211.15405,187.03745 c -23.33413,-6.28476 -40.32176,-28.33599 -40.25973,-52.26018 0.0367,-14.13861 5.66167,-27.11603 16.37447,-37.7774 10.99288,-10.94012 21.94599,-15.390005 37.93443,-15.411511 25.37391,-0.03413 46.89455,17.494191 52.1654,42.488131 1.84793,8.76273 1.8557,13.20902 0.0381,21.78686 -4.17446,19.70038 -19.7899,36.16046 -39.0687,41.18195 -7.22544,1.88198 -20.18122,1.87824 -27.18394,-0.008 z"
           id="path3383" />
      </g>
    </g>
  </g>
</svg>
