<?xml version="1.0" encoding="UTF-8" standalone="no"?>
<svg
   xmlns:dc="http://purl.org/dc/elements/1.1/"
   xmlns:cc="http://creativecommons.org/ns#"
   xmlns:rdf="http://www.w3.org/1999/02/22-rdf-syntax-ns#"
   xmlns:svg="http://www.w3.org/2000/svg"
   xmlns="http://www.w3.org/2000/svg"
   xmlns:sodipodi="http://sodipodi.sourceforge.net/DTD/sodipodi-0.dtd"
   xmlns:inkscape="http://www.inkscape.org/namespaces/inkscape"
   version="1.1"
   id="svg2"
   viewBox="0 0 50 100"
   height="100"
   width="50"
   inkscape:version="0.91pre4 r13712"
   sodipodi:docname="phone.svg">
  <sodipodi:namedview
     pagecolor="#ffffff"
     bordercolor="#666666"
     borderopacity="1"
     objecttolerance="10"
     gridtolerance="10"
     guidetolerance="10"
     inkscape:pageopacity="0"
     inkscape:pageshadow="2"
     inkscape:window-width="1366"
     inkscape:window-height="748"
     id="namedview9"
     showgrid="false"
     inkscape:zoom="2.36"
     inkscape:cx="25"
     inkscape:cy="50"
     inkscape:window-x="-8"
     inkscape:window-y="-8"
     inkscape:window-maximized="1"
     inkscape:current-layer="svg2" />
  <defs
     id="defs4" />
  <metadata
     id="metadata7">
    <rdf:RDF>
      <cc:Work
         rdf:about="">
        <dc:format>image/svg+xml</dc:format>
        <dc:type
           rdf:resource="http://purl.org/dc/dcmitype/StillImage" />
        <dc:title />
      </cc:Work>
    </rdf:RDF>
  </metadata>
  <g
     transform="translate(0,-952.36216)"
     id="layer1"
     style="fill:#afafaf;fill-opacity:1">
    <g
       transform="translate(38.571428,-27.142857)"
       id="g3369"
       style="fill:#afafaf;fill-opacity:1">
      <g
         transform="translate(-40,-25.714286)"
         id="g3381"
         style="fill:#afafaf;fill-opacity:1">
        <path
           style="fill:#afafaf;fill-opacity:1"
           d="m 7.2531056,1105.0486 c -2.7430949,-0.5413 -5.139115,-3.0758 -5.6513876,-5.9781 -0.2308613,-1.308 -0.2308613,-86.3734 0,-87.6814 0.5248545,-2.9736 2.9173184,-5.4494 5.7908321,-5.9925 1.2503621,-0.2363 36.8216819,-0.2363 38.0720439,0 2.873514,0.5431 5.265978,3.0189 5.790832,5.9925 0.230861,1.308 0.230861,86.3734 0,87.6814 -0.524854,2.9735 -2.917318,5.4493 -5.790832,5.9924 -1.150384,0.2175 -37.1053639,0.204 -38.2114884,-0.014 z m 20.8460464,-6.8883 c 0.815311,-0.4309 1.693454,-1.3309 2.12406,-2.177 0.430925,-0.8466 0.368586,-2.5183 -0.130805,-3.5076 -1.350892,-2.6761 -5.02869,-3.3383 -7.263533,-1.3077 -2.452445,2.2282 -1.627316,6.0608 1.561199,7.2515 1.01578,0.3793 2.727179,0.2597 3.709079,-0.2592 z m 19.469421,-44.1806 0,-33.2048 -21.215502,0 -21.215502,0 -0.038751,33.0485 c -0.02126,18.1767 -0.00676,33.1367 0.033243,33.2444 0.057305,0.156 4.3878347,0.1878 21.254223,0.1563 l 21.182289,-0.04 0,-33.2048 z m -16.626067,-37.171 c 0.310895,-0.3555 0.192826,-1.0451 -0.217874,-1.2726 -0.157447,-0.087 -1.908196,-0.1521 -4.101533,-0.1521 -3.219197,0 -3.880124,0.039 -4.162434,0.2433 -0.362314,0.2626 -0.427997,0.6924 -0.179287,1.1733 0.148693,0.2875 0.357579,0.3022 4.280106,0.3022 3.846137,0 4.141096,-0.02 4.381022,-0.2941 z"
           id="path3371" />
      </g>
    </g>
  </g>
</svg>
