<?xml version="1.0" encoding="UTF-8" standalone="no"?>
<svg
   xmlns:dc="http://purl.org/dc/elements/1.1/"
   xmlns:cc="http://creativecommons.org/ns#"
   xmlns:rdf="http://www.w3.org/1999/02/22-rdf-syntax-ns#"
   xmlns:svg="http://www.w3.org/2000/svg"
   xmlns="http://www.w3.org/2000/svg"
   xmlns:sodipodi="http://sodipodi.sourceforge.net/DTD/sodipodi-0.dtd"
   xmlns:inkscape="http://www.inkscape.org/namespaces/inkscape"
   version="1.1"
   id="svg2"
   viewBox="0 0 500 500.00001"
   height="500"
   width="500"
   inkscape:version="0.91pre4 r13712"
   sodipodi:docname="features3-inkscape.svg"
   inkscape:export-filename="C:\Users\Kaspar\MyWPTheme\images\features3.png"
   inkscape:export-xdpi="90"
   inkscape:export-ydpi="90">
  <sodipodi:namedview
     pagecolor="#ffffff"
     bordercolor="#666666"
     borderopacity="1"
     objecttolerance="10"
     gridtolerance="10"
     guidetolerance="10"
     inkscape:pageopacity="0"
     inkscape:pageshadow="2"
     inkscape:window-width="1366"
     inkscape:window-height="748"
     id="namedview20"
     showgrid="false"
     inkscape:zoom="0.6675088"
     inkscape:cx="250"
     inkscape:cy="250"
     inkscape:window-x="-8"
     inkscape:window-y="-8"
     inkscape:window-maximized="1"
     inkscape:current-layer="svg2" />
  <defs
     id="defs4">
    <clipPath
       id="clipPath3416"
       clipPathUnits="userSpaceOnUse">
      <g
         transform="matrix(0.70710678,0.70710678,-0.70710678,0.70710678,-372.08259,-547.2257)"
         id="g3418">
        <path
           id="path3420"
           d="m 661.92431,1163.6122 -2.42431,-2.75 2.75,2.4243 c 1.5125,1.3334 2.75,2.5709 2.75,2.75 0,0.7843 -0.8098,0.146 -3.07569,-2.4243 z m 475.07569,0.25 c 1.2917,-1.375 2.5736,-2.5 2.8486,-2.5 0.275,0 -0.5568,1.125 -1.8486,2.5 -1.2917,1.375 -2.5736,2.5 -2.8486,2.5 -0.275,0 0.5569,-1.125 1.8486,-2.5 z M 662,688.86218 c 1.29174,-1.375 2.57363,-2.5 2.84863,-2.5 0.275,0 -0.55689,1.125 -1.84863,2.5 -1.29175,1.375 -2.57363,2.5 -2.84863,2.5 -0.275,0 0.55688,-1.125 1.84863,-2.5 z m 474.9243,-0.25 -2.4243,-2.75 2.75,2.42431 c 1.5125,1.33338 2.75,2.57088 2.75,2.75 0,0.78428 -0.8098,0.14598 -3.0757,-2.42431 z"
           style="fill-opacity:1" />
        <path
           id="path3422"
           d="m 685.17429,1175.3374 c -16.94118,-2.466 -31.68723,-17.6438 -34.23132,-35.2336 -1.19179,-8.24 -1.19179,-419.24328 0,-427.48326 2.61193,-18.0588 17.18303,-32.6951 35.13229,-35.28951 8.4133,-1.21606 419.26554,-1.24093 427.66634,-0.0259 18.0588,2.61193 32.6951,17.18303 35.2896,35.13229 1.2393,8.57428 1.2393,419.27518 0,427.84948 -2.5945,17.9493 -17.2308,32.5204 -35.2896,35.1323 -7.6198,1.1021 -420.97624,1.0232 -428.56731,-0.082 z"
           style="fill-opacity:1" />
      </g>
    </clipPath>
    <clipPath
       id="clipPath3424"
       clipPathUnits="userSpaceOnUse">
      <g
         transform="matrix(0.70710678,-0.70710678,0.70710678,0.70710678,-547.2257,372.08259)"
         id="g3426">
        <path
           id="path3428"
           d="m 661.92431,1163.6122 -2.42431,-2.75 2.75,2.4243 c 1.5125,1.3334 2.75,2.5709 2.75,2.75 0,0.7843 -0.8098,0.146 -3.07569,-2.4243 z m 475.07569,0.25 c 1.2917,-1.375 2.5736,-2.5 2.8486,-2.5 0.275,0 -0.5568,1.125 -1.8486,2.5 -1.2917,1.375 -2.5736,2.5 -2.8486,2.5 -0.275,0 0.5569,-1.125 1.8486,-2.5 z M 662,688.86218 c 1.29174,-1.375 2.57363,-2.5 2.84863,-2.5 0.275,0 -0.55689,1.125 -1.84863,2.5 -1.29175,1.375 -2.57363,2.5 -2.84863,2.5 -0.275,0 0.55688,-1.125 1.84863,-2.5 z m 474.9243,-0.25 -2.4243,-2.75 2.75,2.42431 c 1.5125,1.33338 2.75,2.57088 2.75,2.75 0,0.78428 -0.8098,0.14598 -3.0757,-2.42431 z"
           style="fill-opacity:1" />
        <path
           id="path3430"
           d="m 685.17429,1175.3374 c -16.94118,-2.466 -31.68723,-17.6438 -34.23132,-35.2336 -1.19179,-8.24 -1.19179,-419.24328 0,-427.48326 2.61193,-18.0588 17.18303,-32.6951 35.13229,-35.28951 8.4133,-1.21606 419.26554,-1.24093 427.66634,-0.0259 18.0588,2.61193 32.6951,17.18303 35.2896,35.13229 1.2393,8.57428 1.2393,419.27518 0,427.84948 -2.5945,17.9493 -17.2308,32.5204 -35.2896,35.1323 -7.6198,1.1021 -420.97624,1.0232 -428.56731,-0.082 z"
           style="fill-opacity:1" />
      </g>
    </clipPath>
  </defs>
  <metadata
     id="metadata7">
    <rdf:RDF>
      <cc:Work
         rdf:about="">
        <dc:format>image/svg+xml</dc:format>
        <dc:type
           rdf:resource="http://purl.org/dc/dcmitype/StillImage" />
        <dc:title></dc:title>
      </cc:Work>
    </rdf:RDF>
  </metadata>
  <rect
     style="opacity:1;fill:#00ff00;fill-opacity:1;fill-rule:nonzero;stroke:#00ff00;stroke-width:83.33333588;stroke-linecap:round;stroke-linejoin:round;stroke-miterlimit:4;stroke-dasharray:none;stroke-dashoffset:0;stroke-opacity:1"
     id="rect4686-3"
     width="416.66666"
     height="416.66666"
     x="41.666668"
     y="41.666649" />
  <g
     id="g4770"
     transform="matrix(0.98932904,0,0,0.989191,-25.342211,-437.67772)"
     style="stroke:#ffffff;stroke-width:50;stroke-linejoin:bevel;stroke-miterlimit:4;stroke-dasharray:none;stroke-opacity:1">
    <rect
       transform="matrix(0.70710678,-0.70710678,0.70710678,0.70710678,0,0)"
       y="613.97809"
       x="-411.23587"
       height="150"
       width="50"
       id="rect4751"
       style="opacity:1;fill:#ffffff;fill-opacity:1;fill-rule:nonzero;stroke:#ffffff;stroke-width:50;stroke-linecap:round;stroke-linejoin:bevel;stroke-miterlimit:4;stroke-dasharray:none;stroke-dashoffset:0;stroke-opacity:1" />
    <rect
       transform="matrix(0.70710678,0.70710678,-0.70710678,0.70710678,0,0)"
       y="111.12421"
       x="714.18182"
       height="300"
       width="50"
       id="rect4751-0"
       style="opacity:1;fill:#ffffff;fill-opacity:1;fill-rule:nonzero;stroke:#ffffff;stroke-width:50;stroke-linecap:round;stroke-linejoin:bevel;stroke-miterlimit:4;stroke-dasharray:none;stroke-dashoffset:0;stroke-opacity:1" />
  </g>
  <rect
     style="opacity:0.075;fill:#000000;fill-opacity:1;fill-rule:nonzero;stroke:none;stroke-width:100;stroke-linecap:round;stroke-linejoin:round;stroke-miterlimit:4;stroke-dasharray:none;stroke-dashoffset:0;stroke-opacity:1"
     id="rect4734"
     width="365.67523"
     height="753.57379"
     x="378.76688"
     y="8.4449463"
     transform="matrix(0.7072319,0.70738873,-0.7072319,0.70738873,0,-552.78177)"
     clip-path="url(#clipPath3424)" />
  <rect
     style="opacity:0.075;fill:#000000;fill-opacity:1;fill-rule:nonzero;stroke:none;stroke-width:100;stroke-linecap:round;stroke-linejoin:round;stroke-miterlimit:4;stroke-dasharray:none;stroke-dashoffset:0;stroke-opacity:1"
     id="rect4734-7"
     width="365.67523"
     height="753.57379"
     x="-756.27289"
     y="370.89972"
     transform="matrix(0.70710678,-0.70710678,0.70710678,0.70710678,0,-552.36216)"
     clip-path="url(#clipPath3416)" />
</svg>
